<svg width="421" height="418" fill="none" xmlns="http://www.w3.org/2000/svg"><path d="M7.232 167.92c5.348 7.545 17.065 8.285 26.29 1.629 9.155-6.659 12.156-18.053 6.885-25.674l-3.735-5.105-32.515 24.636 3.075 4.514Z" fill="#000"/><path d="M7.232 167.92c5.348 7.545 17.065 8.285 26.29 1.629 9.155-6.659 12.156-18.053 6.885-25.674l-3.735-5.105-32.515 24.636 3.075 4.514Z" stroke="#000" stroke-width="1.4" stroke-miterlimit="10" stroke-linecap="round" stroke-linejoin="round"/><path d="M29.862 164.441c9.153-6.583 12.155-18.126 6.81-25.671-5.345-7.547-17.137-8.361-26.218-1.702-9.152 6.584-12.155 18.126-6.81 25.671 5.348 7.548 17.065 8.286 26.218 1.702Z" fill="#B880FF"/><path d="M29.862 164.441c9.153-6.583 12.155-18.126 6.81-25.671-5.345-7.547-17.137-8.361-26.218-1.702-9.152 6.584-12.155 18.126-6.81 25.671 5.348 7.548 17.065 8.286 26.218 1.702Z" stroke="#000" stroke-width="1.4" stroke-miterlimit="10" stroke-linecap="round" stroke-linejoin="round"/><path d="m20.71 132.853-2.346 18.051 20.454-6.262s-2.597-12.796-17.964-12.38" fill="#fff"/><path d="M29.862 164.441c9.153-6.583 12.155-18.126 6.81-25.671-5.345-7.547-17.137-8.361-26.218-1.702-9.152 6.584-12.155 18.126-6.81 25.671 5.348 7.548 17.065 8.286 26.218 1.702Z" stroke="#000" stroke-width="1.4" stroke-miterlimit="10" stroke-linecap="round" stroke-linejoin="round"/><path d="m48.32 61.336-1.264-1.91-.345-1.398a10.568 10.568 0 0 1-2.942-1.246l-3.524 1.105c-.688-.686-1.111-1.185-2.306-2.807-1.09-1.481-1.868-2.684-2.248-3.774l2.715-2.936a15.878 15.878 0 0 1-.169-3.625l-1.498-1.829c-1.182-1.24-2.023-2.83-2.023-2.83l7.983-5.643c.445-.486.911-.94 1.42-1.365.44-.367.886-.706 1.345-1.007l6.945-7.135 1.264 1.909 1.616 3.319c1.034.267 2.018.674 2.942 1.246l2.926-2.162c.855.793 1.713 1.83 2.898 3.854.592 1.012 1.102 2.044 1.483 3.134l-1.952 3.576a15.86 15.86 0 0 1 .17 3.624l.993.841 1.264 1.91a20.76 20.76 0 0 1-3.145 7.288l-3.574.264c-.445.486-.911.94-1.42 1.365-.44.366-.886.705-1.345 1.006l-1.267 3.873c-2.289 1.041-4.662 1.481-6.942 1.353Z" fill="#000"/><path d="m48.32 61.336-1.264-1.91-.345-1.398a10.568 10.568 0 0 1-2.942-1.246l-3.524 1.105c-.688-.686-1.111-1.185-2.306-2.807-1.09-1.481-1.868-2.684-2.248-3.774l2.715-2.936a15.878 15.878 0 0 1-.169-3.625l-1.498-1.829c-1.182-1.24-2.023-2.83-2.023-2.83l7.983-5.643c.445-.486.911-.94 1.42-1.365.44-.367.886-.706 1.345-1.007l6.945-7.135 1.264 1.909 1.616 3.319c1.034.267 2.018.674 2.942 1.246l2.926-2.162c.855.793 1.713 1.83 2.898 3.854.592 1.012 1.102 2.044 1.483 3.134l-1.952 3.576a15.86 15.86 0 0 1 .17 3.624l.993.841 1.264 1.91a20.76 20.76 0 0 1-3.145 7.288l-3.574.264c-.445.486-.911.94-1.42 1.365-.44.366-.886.705-1.345 1.006l-1.267 3.873c-2.289 1.041-4.662 1.481-6.942 1.353Z" stroke="#000" stroke-width="1.4" stroke-miterlimit="10" stroke-linecap="round" stroke-linejoin="round"/><path d="m47.05 59.417-1.616-3.319a10.562 10.562 0 0 1-2.942-1.246l-3.523 1.105a13.765 13.765 0 0 1-2.308-2.808 15.847 15.847 0 0 1-1.482-3.134l1.95-3.576a15.858 15.858 0 0 1-.168-3.624l-2.258-2.75a20.768 20.768 0 0 1 3.144-7.289l3.575-.264c.445-.486.911-.94 1.42-1.364.44-.367.886-.706 1.345-1.007l1.267-3.873c2.296-1.03 4.669-1.47 6.95-1.342l1.615 3.319c1.034.266 2.018.674 2.942 1.246l3.524-1.105c.861.804 1.636 1.73 2.307 2.807a15.836 15.836 0 0 1 1.482 3.134l-1.95 3.576c.19 1.183.254 2.407.169 3.625l2.257 2.75a20.773 20.773 0 0 1-3.144 7.288l-3.575.264a14.74 14.74 0 0 1-2.765 2.371L54 58.075c-2.282 1.035-4.662 1.481-6.95 1.343Z" fill="#fff"/><path d="m47.05 59.417-1.616-3.319a10.562 10.562 0 0 1-2.942-1.246l-3.523 1.105a13.765 13.765 0 0 1-2.308-2.808 15.847 15.847 0 0 1-1.482-3.134l1.95-3.576a15.858 15.858 0 0 1-.168-3.624l-2.258-2.75a20.768 20.768 0 0 1 3.144-7.289l3.575-.264a14.6 14.6 0 0 1 1.42-1.364c.44-.367.886-.706 1.345-1.007l1.267-3.873c2.296-1.03 4.669-1.47 6.95-1.342l1.615 3.319c1.034.266 2.018.674 2.942 1.246l3.524-1.105c.861.804 1.636 1.73 2.307 2.807a15.836 15.836 0 0 1 1.482 3.134l-1.95 3.576c.19 1.183.254 2.407.169 3.625l2.257 2.75a20.773 20.773 0 0 1-3.144 7.288l-3.575.264a14.74 14.74 0 0 1-2.765 2.371L54 58.075c-2.282 1.035-4.662 1.481-6.95 1.343Z" stroke="#000" stroke-width="1.4" stroke-miterlimit="10" stroke-linecap="round" stroke-linejoin="round"/><path d="M47.049 38.51c2.617-2.216 6.044-2.177 8.13-.07a6.65 6.65 0 0 0-.554-1.044c-1.937-2.935-5.892-3.288-8.833-.802-2.94 2.485-3.749 6.876-1.819 9.8.215.329.448.61.703.871-1.162-2.845-.237-6.547 2.373-8.756Z" fill="#000"/><path d="M47.049 38.51c2.617-2.216 6.044-2.177 8.13-.07a6.65 6.65 0 0 0-.554-1.044c-1.937-2.935-5.892-3.288-8.833-.802-2.94 2.485-3.749 6.876-1.819 9.8.215.329.448.61.703.871-1.162-2.845-.237-6.547 2.373-8.756Z" stroke="#000" stroke-width="1.4" stroke-miterlimit="10" stroke-linecap="round" stroke-linejoin="round"/><path d="M55.189 38.451c-2.087-2.107-5.506-2.153-8.13.069-2.61 2.209-3.542 5.9-2.373 8.756 2.086 2.108 5.505 2.153 8.13-.069 2.61-2.208 3.55-5.906 2.373-8.756Z" fill="#B880FF"/><path d="M55.189 38.451c-2.087-2.107-5.506-2.153-8.13.069-2.61 2.209-3.542 5.9-2.373 8.756 2.086 2.108 5.505 2.153 8.13-.069 2.61-2.208 3.55-5.906 2.373-8.756Z" stroke="#000" stroke-width="1.4" stroke-miterlimit="10" stroke-linecap="round" stroke-linejoin="round"/><path d="M323.105 180.514c3.835-2.201 9.126-.156 11.872 4.529 2.746 4.685 1.978 10.354-1.777 12.694-3.813 2.38-9.252.424-12.081-4.403-2.832-4.832-1.913-10.586 1.986-12.82Zm-6.647 22.596c1.19-.727 7.674-4.461 8.85-3.553 5.416 4.19 9.054 7.732 14.165 4.43 6.913-4.468 6.377-13.75 1.3-22.412-5.077-8.662-14.872-12.551-22.073-8.576-5.258 2.902-7.716 9.202-6.771 15.922.202 1.46-.391 2.855-1.581 3.546l-20.104 11.72c-.505.297-1.17-.064-1.213-.673-.088-1.159-.63-2.742-1.564-4.336-1.6-2.729-3.742-4.469-4.791-3.889l-3.282 1.829 5.851 9.982-9.286 5.415 6.652 11.349 33.847-20.754Z" fill="#000"/><path d="m343.141 197.588-2.525-1.084-7.961 7.139c-.602.027-1.205.061-1.807.088.64 1.187.47 1.95.414 2.154-.15.553-.567 1.026-1.178 1.345 2.661.114 5.251-.516 7.517-1.981 2.744-1.771 4.601-4.494 5.54-7.661ZM331.612 173.007l-14.413 6.719c1.885.329 3.758.653 5.62.975.097-.064.185-.132.287-.187 3.381-1.94 7.888-.581 10.787 2.968.001-.147.023-1.366.99-2.044 1.042-.732 2.258-.185 2.359-.137-.068-.677-.138-1.358-.205-2.035l-1.169-3.523a19.567 19.567 0 0 0-4.256-2.736Z" fill="#B880FF"/><path d="M323.105 180.514c3.835-2.201 9.126-.156 11.872 4.529 2.746 4.685 1.978 10.354-1.777 12.694-3.813 2.38-9.252.424-12.081-4.403-2.832-4.832-1.913-10.586 1.986-12.82Zm-6.647 22.596c1.19-.727 2.701-.571 3.878.337 5.415 4.191 12.158 5.106 17.269 1.804 6.913-4.468 8.245-15.014 3.168-23.676-5.077-8.662-14.872-12.551-22.073-8.576-5.258 2.902-7.716 9.202-6.771 15.922.202 1.46-.391 2.855-1.581 3.546l-20.104 11.72c-.505.297-1.17-.064-1.213-.673-.088-1.159-.63-2.742-1.564-4.336-1.6-2.729-3.742-4.469-4.791-3.889l-3.282 1.829 5.851 9.982-9.286 5.415 6.652 11.349 33.847-20.754Z" stroke="#000" stroke-width="1.4" stroke-miterlimit="10" stroke-linecap="round" stroke-linejoin="round"/><path d="m280.765 209.712 6.639-3.972-6.639 3.972Zm45.186-30.834c3.789-2.174 9.03-.135 11.76 4.523 2.731 4.658 1.981 10.28-1.728 12.592-3.77 2.349-9.151.395-11.963-4.402-2.812-4.796-1.92-10.502 1.931-12.713Zm-6.512 22.406c1.175-.718 2.671-.563 3.834.343 5.369 4.171 12.042 5.098 17.094 1.836 6.827-4.412 8.121-14.873 3.074-23.485-5.048-8.611-14.75-12.494-21.862-8.566-5.195 2.868-7.604 9.109-6.658 15.781.207 1.451-.379 2.831-1.554 3.513l-19.846 11.572c-.497.293-1.156-.067-1.201-.67-.089-1.153-.632-2.72-1.562-4.306-1.589-2.71-3.712-4.446-4.743-3.87l-11.149 6.207 5.903 10.071-10.018 5.843 6.717 11.46 41.971-25.729Z" fill="#fff"/><path d="m280.765 209.712 6.639-3.972m38.547-26.862c3.789-2.174 9.03-.135 11.76 4.523 2.73 4.658 1.981 10.28-1.728 12.592-3.77 2.349-9.151.395-11.963-4.401-2.812-4.797-1.92-10.503 1.931-12.714Zm-6.512 22.406c1.175-.718 2.671-.563 3.834.343 5.369 4.171 12.042 5.098 17.094 1.836 6.827-4.412 8.121-14.873 3.074-23.485-5.048-8.611-14.75-12.494-21.862-8.566-5.195 2.868-7.604 9.109-6.658 15.781.207 1.451-.379 2.831-1.554 3.514l-19.846 11.571c-.497.293-1.156-.067-1.2-.67-.09-1.153-.633-2.72-1.563-4.306-1.589-2.71-3.712-4.446-4.743-3.87l-11.149 6.207 5.903 10.071-10.018 5.843 6.717 11.46 41.971-25.729Z" stroke="#000" stroke-width="1.4" stroke-miterlimit="10" stroke-linecap="round" stroke-linejoin="round"/><path d="M271.893 222.608c-1.864-3.18-2.362-6.345-1.117-7.069 1.239-.72 3.733 1.251 5.581 4.403 1.848 3.153 2.36 6.31 1.138 7.062-1.23.746-3.738-1.216-5.602-4.396Z" fill="#B880FF"/><path d="M271.893 222.608c-1.864-3.18-2.362-6.345-1.117-7.069 1.239-.72 3.733 1.251 5.581 4.403 1.848 3.153 2.36 6.31 1.138 7.062-1.23.746-3.738-1.216-5.602-4.396Z" stroke="#000" stroke-width="1.4" stroke-miterlimit="10" stroke-linecap="round" stroke-linejoin="round"/><path d="M275.858 205.792c-1.636-2.791-2.082-5.545-.999-6.147 1.08-.599 3.269 1.159 4.893 3.931 1.625 2.772 2.079 5.521 1.013 6.143-1.069.619-3.271-1.137-4.907-3.927Z" fill="#B880FF"/><path d="M275.858 205.792c-1.636-2.791-2.082-5.545-.999-6.147 1.08-.599 3.269 1.159 4.893 3.931 1.625 2.772 2.079 5.521 1.013 6.143-1.069.619-3.271-1.137-4.907-3.927Z" stroke="#000" stroke-width="1.4" stroke-miterlimit="10" stroke-linecap="round" stroke-linejoin="round"/></svg>
